<svg viewBox="0 0 452.986 452.986">
	<g fill="#010002">
		<path
			d="M404.344 0H48.642C21.894 0 0 21.873 0 48.664v355.681c0 26.726 21.894 48.642 48.642 48.642h355.702c26.726 0 48.642-21.916 48.642-48.642V48.664C452.986 21.873 431.07 0 404.344 0zM148.429 33.629h156.043v40.337H148.429V33.629zm262.473 372.743H42.041v-293.88h368.86v293.88z" />
		<path
			d="M79.273 246.23h48.642v48.664H79.273zM79.273 323.26h48.642v48.642H79.273zM160.853 169.223h48.621v48.642h-48.621zM160.853 246.23h48.621v48.664h-48.621zM160.853 323.26h48.621v48.642h-48.621zM242.369 169.223h48.664v48.642h-48.664zM242.369 246.23h48.664v48.664h-48.664zM242.369 323.26h48.664v48.642h-48.664zM323.907 169.223h48.664v48.642h-48.664zM323.907 246.23h48.664v48.664h-48.664z" />
	</g>
</svg>