<svg viewBox="0 0 575.793 575.793">
	<path
		d="M326.656 327.771v48.254c64.861-17.174 112.814-76.348 112.814-146.532 0-83.578-67.996-151.574-151.575-151.574-83.578 0-151.574 67.997-151.574 151.574 0 70.184 47.957 129.362 112.816 146.532v-48.254c-39.144-15.492-66.916-53.69-66.916-98.278 0-58.269 47.405-105.674 105.674-105.674 58.268 0 105.674 47.405 105.674 105.674.001 44.588-27.772 82.786-66.913 98.278z" />
	<path
		d="M517.391 229.494C517.391 102.951 414.439 0 287.896 0S58.402 102.951 58.402 229.494c0 113.331 82.592 207.672 190.732 226.153v-46.715c-82.678-17.842-144.833-91.502-144.833-179.438 0-101.234 82.36-183.594 183.594-183.594 101.235 0 183.594 82.36 183.594 183.594 0 87.936-62.154 161.596-144.834 179.438v46.715c108.142-18.481 190.736-112.823 190.736-226.153z" />
	<path
		d="M264.435 379.246V575.793h46.918V300.606a74.53 74.53 0 007.65-3.012 75.684 75.684 0 007.65-4.035c21.643-13.146 36.135-36.944 36.135-64.065 0-41.298-33.596-74.896-74.896-74.896-41.301 0-74.894 33.599-74.894 74.896 0 27.121 14.489 50.921 36.135 64.065a74.591 74.591 0 007.65 4.035 74.53 74.53 0 007.65 3.012v78.64zm-4.477-157.402c.75-2.732 1.885-5.3 3.354-7.65 5.125-8.207 14.217-13.697 24.584-13.697 10.368 0 19.459 5.49 24.584 13.697a28.913 28.913 0 013.354 7.65c.67 2.442 1.059 5 1.059 7.65 0 6.34-2.068 12.194-5.535 16.971-5.273 7.271-13.812 12.023-23.461 12.023-9.648 0-18.186-4.755-23.461-12.023-3.467-4.776-5.536-10.63-5.536-16.971-.001-2.65.388-5.208 1.058-7.65z" />
</svg>