<svg viewBox="0 0 405.24 405.24">
    <path
        d="M249.037 330.626H28.283V86.909h335.623v181.629l28.283 28.283V26.195c0-12.996-10.573-23.569-23.568-23.569H23.568C10.573 2.626 0 13.199 0 26.195v309.146c0 12.995 10.573 23.568 23.568 23.568h238.911c-13.109-18.635-13.442-28.283-13.442-28.283zm88.989-288.424a8.702 8.702 0 018.702-8.702h8.701a8.701 8.701 0 018.702 8.702v9.863a8.702 8.702 0 01-8.702 8.702h-8.701a8.7 8.7 0 01-8.702-8.702v-9.863zm-40.465 0a8.702 8.702 0 018.701-8.702h8.703a8.7 8.7 0 018.702 8.702v9.863a8.702 8.702 0 01-8.702 8.702h-8.703a8.701 8.701 0 01-8.701-8.702v-9.863zm-40.466 0a8.703 8.703 0 018.702-8.702h8.702a8.702 8.702 0 018.703 8.702v9.863a8.702 8.702 0 01-8.703 8.702h-8.702a8.703 8.703 0 01-8.702-8.702v-9.863z" />
    <path
        d="M392.606 322.19l-41.165-41.166c-9.292-9.291-21.797-13.446-33.972-12.487.958-12.175-3.196-24.679-12.487-33.972L263.817 193.4c-16.848-16.846-44.256-16.845-61.103 0l-6.689 6.688c-16.846 16.845-16.846 44.255 0 61.102l41.166 41.164c9.293 9.293 21.797 13.446 33.971 12.489-.958 12.174 3.197 24.679 12.489 33.972l41.165 41.164c16.845 16.846 44.255 16.846 61.101 0l6.688-6.688c16.847-16.846 16.847-44.256.001-61.101zm-130.339-48.003l17.062 17.063c-8.687 5.173-20.118 4.027-27.586-3.439l-41.166-41.166c-8.824-8.822-8.824-23.182 0-32.006l6.688-6.688c8.823-8.824 23.182-8.824 32.004 0l41.166 41.165c7.47 7.469 8.613 18.898 3.439 27.587l-17.062-17.063c-4.019-4.018-10.53-4.018-14.548 0-4.016 4.016-4.016 10.529.003 14.547zm115.791 94.556l-6.688 6.688c-8.824 8.824-23.181 8.824-32.005.001L298.2 334.267c-7.468-7.469-8.614-18.898-3.44-27.586l17.063 17.062c4.018 4.019 10.529 4.019 14.548 0 4.017-4.018 4.017-10.53 0-14.548l-17.063-17.063c8.688-5.174 20.118-4.027 27.589 3.44l41.164 41.165c8.821 8.825 8.821 23.182-.003 32.006z" />
</svg>